<?xml version="1.0" encoding="utf-8"?>
<!-- Generator: Adobe Illustrator 24.1.3, SVG Export Plug-In . SVG Version: 6.00 Build 0)  -->
<svg version="1.1" id="Calque_2" xmlns="http://www.w3.org/2000/svg" xmlns:xlink="http://www.w3.org/1999/xlink" x="0px" y="0px"
	 viewBox="0 0 248.8 248.8" style="enable-background:new 0 0 248.8 248.8;" xml:space="preserve">
<style type="text/css">
	.st0{fill-rule:evenodd;clip-rule:evenodd;fill:#BFBFBF;}
	.st1{opacity:0.55;fill-rule:evenodd;clip-rule:evenodd;fill:#FFFFFF;}
	.st2{display:none;}
	.st3{display:inline;fill:#FFFFFF;}
</style>
<g>
	<path class="st0" d="M184.3,86.8v104.3c0,6.9-5.6,12.5-12.6,12.5H75.5c-6.9,0-12.6-5.6-12.6-12.5V57.6c0-6.9,5.6-12.5,12.6-12.5h67
		L184.3,86.8z"/>
</g>
<path class="st1" d="M184.3,86.8H150c-4.2,0-7.5-3.4-7.5-7.5V45.1L184.3,86.8z"/>
<g class="st2">
	<path class="st3" d="M72.5,151.1h16.7c8.1,0,13.6,5,13.6,12.7c0,8.9-6.2,13-13.8,13h-6v13.9H72.5V151.1z M82.9,168.6h4.3
		c3,0,5.1-1.4,5.1-4.7c0-3.4-2.1-4.7-5.1-4.7h-4.3V168.6z"/>
	<path class="st3" d="M107.8,151.1h10.6v14.8h11v-14.8H140v39.6h-10.6v-16.2h-11v16.2h-10.6V151.1z"/>
	<path class="st3" d="M147.4,151.1h16.7c8.1,0,13.6,5,13.6,12.7c0,8.9-6.2,13-13.8,13h-6v13.9h-10.4V151.1z M157.8,168.6h4.3
		c3,0,5.1-1.4,5.1-4.7c0-3.4-2.1-4.7-5.1-4.7h-4.3V168.6z"/>
</g>
</svg>
