<?xml version="1.0" encoding="utf-8"?>
<!-- Generator: Adobe Illustrator 24.1.3, SVG Export Plug-In . SVG Version: 6.00 Build 0)  -->
<svg version="1.1" id="Calque_2" xmlns="http://www.w3.org/2000/svg" xmlns:xlink="http://www.w3.org/1999/xlink" x="0px" y="0px"
	 viewBox="0 0 248.8 248.8" style="enable-background:new 0 0 248.8 248.8;" xml:space="preserve">
<style type="text/css">
	.st0{fill-rule:evenodd;clip-rule:evenodd;fill:#CB0606;}
	.st1{opacity:0.55;fill-rule:evenodd;clip-rule:evenodd;fill:#FFFFFF;}
	.st2{fill:#FFFFFF;}
</style>
<g>
	<path class="st0" d="M206,73.4V215c0,9.4-7.6,17-17,17H58.3c-9.4,0-17-7.6-17-17V33.8c0-9.4,7.6-17,17-17h90.9L206,73.4z"/>
</g>
<path class="st1" d="M206,73.4h-46.6c-5.7,0-10.2-4.6-10.2-10.2V16.8L206,73.4z"/>
<g>
	<path class="st2" d="M59.8,163.6h21.8c10.6,0,17.7,5.9,17.7,15.1c0,10.6-8.1,15.4-18,15.4h-7.9v16.5H59.8V163.6z M73.4,184.4H79
		c3.9,0,6.7-1.6,6.7-5.5c0-4-2.8-5.6-6.6-5.6h-5.6V184.4z"/>
	<path class="st2" d="M105.8,163.6H126c14.9,0,23.6,9.5,23.6,23c0,13.5-8.4,24-23.8,24h-20V163.6z M119.6,200.6h5.3
		c7.5,0,10.5-5.2,10.5-14c0-7.8-2.9-13-10.4-13h-5.4V200.6z"/>
	<path class="st2" d="M157.2,163.6h35.1v10.2h-21.6v9.1h20.3v10.2h-20.3v17.4h-13.5V163.6z"/>
</g>
</svg>
