<?xml version="1.0" encoding="utf-8"?>
<!-- Generator: Adobe Illustrator 24.1.3, SVG Export Plug-In . SVG Version: 6.00 Build 0)  -->
<svg version="1.1" xmlns="http://www.w3.org/2000/svg" xmlns:xlink="http://www.w3.org/1999/xlink" x="0px" y="0px"
	 viewBox="0 0 24 24" style="enable-background:new 0 0 24 24;" xml:space="preserve">
<style type="text/css">
	.st0{fill:#FFFFFF;}
</style>
<g id="Calque_1">
	<g id="Layer_1">
	</g>
	<g>
		<path class="st0" d="M16.9,8.3c0,0.7-0.1,1.3-0.3,1.8c-0.2,0.5-0.5,1-0.8,1.4c-0.4,0.4-0.8,0.7-1.3,1c-0.5,0.3-1.1,0.6-1.7,0.8
			v2.3H9.4v-3.4c0.4-0.1,0.8-0.2,1.3-0.4c0.5-0.2,0.9-0.4,1.2-0.6c0.4-0.3,0.7-0.6,0.9-0.9C13,9.9,13.1,9.5,13.1,9
			c0-0.7-0.2-1.1-0.6-1.4c-0.4-0.3-1-0.5-1.8-0.5c-0.6,0-1.2,0.1-1.8,0.4S7.8,8,7.4,8.3H7.1v-3C7.5,5,8.2,4.9,9,4.7
			c0.8-0.2,1.7-0.3,2.7-0.3c0.8,0,1.6,0.1,2.2,0.3c0.6,0.2,1.2,0.5,1.7,0.8c0.4,0.4,0.8,0.8,1,1.3C16.8,7.2,16.9,7.7,16.9,8.3z
			 M13.1,19.6h-4V17h4V19.6z"/>
	</g>
</g>
</svg>
