<?xml version="1.0" encoding="utf-8"?>
<!-- Generator: Adobe Illustrator 24.1.3, SVG Export Plug-In . SVG Version: 6.00 Build 0)  -->
<svg version="1.1" id="Calque_1" xmlns="http://www.w3.org/2000/svg" xmlns:xlink="http://www.w3.org/1999/xlink" x="0px" y="0px"
	 viewBox="0 0 1063.3 937.1" style="enable-background:new 0 0 1063.3 937.1;" xml:space="preserve">
<style type="text/css">
	.st0{fill:#F2F2F2;}
</style>
<g>
	<path class="st0" d="M567.9,572.7c0-125.6,101.8-227.4,227.4-227.4c66.6,0,127.1,29.1,169.2,75V183.8c0-39.8-32.2-72-72-72H525.8
		c-22.2,0-40.6-17.6-40.6-40.6V72c0-39.8-32.2-72-72-72H155.3c-40.6,0.8-72,32.9-72,72v609.4c0,39.8,32.2,72,72,72h500
		C601.6,710.5,567.9,645.4,567.9,572.7z M939.3,662.3c15.3-25.3,23.7-56.7,23.7-88c0-95.7-75.8-173-170-173s-169.2,78.1-169.2,173.8
		s75.8,173,170,173c35.2,0,68.1-10.7,95.7-29.9l121.7,124l52.1-52.8L939.3,662.3z M793.8,692.1c-64.3,0-116.4-52.8-116.4-117.9
		s52.1-117.9,116.4-117.9s116.4,52.8,116.4,117.9S858.1,692.1,793.8,692.1z"/>
</g>
<g>
	<path class="st0" d="M114.7,932.1l4-8.8c4.2,3.1,10.6,5.3,16.6,5.3c6.9,0,9.7-2.3,9.7-5.4c0-9.4-29.3-3-29.3-21.7
		c0-8.6,6.9-15.7,21.2-15.7c6.3,0,12.8,1.5,17.5,4.5l-3.6,8.9c-4.7-2.7-9.5-4-14-4c-6.9,0-9.6,2.6-9.6,5.8c0,9.3,29.3,2.9,29.3,21.4
		c0,8.4-7,15.6-21.4,15.6C127.2,938,119.1,935.6,114.7,932.1z"/>
	<path class="st0" d="M203.6,927.7v9.4h-39v-50.4h38.1v9.4h-26.5V907h23.4v9.1h-23.4v11.7H203.6z"/>
	<path class="st0" d="M212.9,886.7h11.7v40.9h25.3v9.5h-36.9V886.7z"/>
	<path class="st0" d="M295.4,927.7v9.4h-39v-50.4h38.1v9.4H268V907h23.4v9.1H268v11.7H295.4z"/>
	<path class="st0" d="M301.4,911.9c0-15.2,11.7-26.1,27.4-26.1c8.7,0,16,3.2,20.7,8.9l-7.5,6.9c-3.4-3.9-7.6-5.9-12.7-5.9
		c-9.4,0-16.1,6.6-16.1,16.1s6.7,16.1,16.1,16.1c5,0,9.3-2,12.7-6l7.5,6.9c-4.8,5.8-12,9-20.8,9C313,938,301.4,927.1,301.4,911.9z"
		/>
	<path class="st0" d="M367.3,896.2h-16.1v-9.5h43.9v9.5h-16.1v40.9h-11.7V896.2z"/>
	<path class="st0" d="M433.4,896.1v13.3h23.3v9.4h-23.3v18.4h-11.7v-50.4h38.1v9.4H433.4z"/>
	<path class="st0" d="M467.7,886.7h11.7v50.4h-11.7V886.7z"/>
	<path class="st0" d="M491.3,886.7H503v40.9h25.3v9.5h-36.9V886.7z"/>
	<path class="st0" d="M573.8,927.7v9.4h-39v-50.4h38.1v9.4h-26.5V907h23.4v9.1h-23.4v11.7H573.8z"/>
	<path class="st0" d="M579.1,932.1l4-8.8c4.2,3.1,10.6,5.3,16.6,5.3c6.9,0,9.7-2.3,9.7-5.4c0-9.4-29.3-3-29.3-21.7
		c0-8.6,6.9-15.7,21.2-15.7c6.3,0,12.8,1.5,17.5,4.5l-3.6,8.9c-4.7-2.7-9.5-4-14-4c-6.9,0-9.6,2.6-9.6,5.8c0,9.3,29.3,2.9,29.3,21.4
		c0,8.4-7,15.6-21.4,15.6C591.7,938,583.6,935.6,579.1,932.1z"/>
	<path class="st0" d="M659.9,896.2h-16.1v-9.5h43.9v9.5h-16.1v40.9h-11.7V896.2z"/>
	<path class="st0" d="M690,911.9c0-15,11.7-26.1,27.6-26.1c15.8,0,27.6,11,27.6,26.1c0,15-11.7,26.1-27.6,26.1
		C701.7,938,690,926.9,690,911.9z M733.4,911.9c0-9.6-6.8-16.1-15.8-16.1c-9,0-15.8,6.6-15.8,16.1s6.8,16.1,15.8,16.1
		C726.6,928,733.4,921.5,733.4,911.9z"/>
	<path class="st0" d="M813.4,927.7v9.4h-39v-50.4h38.1v9.4h-26.5V907h23.4v9.1h-23.4v11.7H813.4z"/>
	<path class="st0" d="M822.6,886.7h22.9c16.5,0,27.8,9.9,27.8,25.2s-11.3,25.2-27.8,25.2h-22.9V886.7z M845,927.5
		c10,0,16.6-6,16.6-15.6s-6.6-15.6-16.6-15.6h-10.7v31.3H845z"/>
	<path class="st0" d="M882.1,886.7h11.7v50.4h-11.7V886.7z"/>
	<path class="st0" d="M916.2,896.2H900v-9.5H944v9.5h-16.1v40.9h-11.7V896.2z"/>
</g>
</svg>
