<?xml version="1.0" encoding="utf-8"?>
<!-- Generator: Adobe Illustrator 24.1.3, SVG Export Plug-In . SVG Version: 6.00 Build 0)  -->
<svg version="1.1" id="Calque_1" xmlns="http://www.w3.org/2000/svg" xmlns:xlink="http://www.w3.org/1999/xlink" x="0px" y="0px"
	 viewBox="0 0 24 24" style="enable-background:new 0 0 24 24;" xml:space="preserve">
<style type="text/css">
	.st0{fill:#FFFFFF;}
</style>
<path class="st0" d="M9.9,17.1l0.4,1.5c0.1,0.5,0.7,1,1.3,1h1c0.6,0,1.1-0.4,1.3-1l0.4-1.5c0.1-0.5,0.7-0.9,1.2-0.7l1.5,0.4
	c0.5,0.2,1.2-0.1,1.5-0.6l0.5-0.9c0.3-0.5,0.2-1.2-0.2-1.6l-1.1-1.1c-0.4-0.4-0.4-1,0-1.4l1.1-1.1c0.4-0.4,0.5-1.1,0.2-1.6l-0.5-0.9
	C18,7.3,17.4,7,16.8,7.2l-1.5,0.4c-0.5,0.2-1.1-0.2-1.2-0.7l-0.4-1.5c-0.1-0.5-0.7-1-1.3-1h-1c-0.6,0-1.1,0.4-1.3,1L9.9,6.9
	C9.7,7.4,9.2,7.8,8.7,7.6L7.2,7.2C6.6,7,6,7.3,5.7,7.8L5.2,8.7C4.9,9.1,5,9.8,5.4,10.2l1.1,1.1c0.4,0.4,0.4,1,0,1.4l-1.1,1.1
	c-0.4,0.4-0.5,1.1-0.2,1.6l0.5,0.9C6,16.7,6.6,17,7.2,16.8l1.5-0.4C9.2,16.2,9.7,16.6,9.9,17.1z M12,10c1.1,0,2,0.9,2,2
	c0,1.1-0.9,2-2,2s-2-0.9-2-2C10,10.9,10.9,10,12,10z"/>
</svg>
