<?xml version="1.0" encoding="utf-8"?>
<!-- Generator: Adobe Illustrator 24.1.3, SVG Export Plug-In . SVG Version: 6.00 Build 0)  -->
<svg version="1.1" id="Calque_2" xmlns="http://www.w3.org/2000/svg" xmlns:xlink="http://www.w3.org/1999/xlink" x="0px" y="0px"
	 viewBox="0 0 248.8 248.8" style="enable-background:new 0 0 248.8 248.8;" xml:space="preserve">
<style type="text/css">
	.st0{fill-rule:evenodd;clip-rule:evenodd;fill:#3296CE;}
	.st1{opacity:0.55;fill-rule:evenodd;clip-rule:evenodd;fill:#FFFFFF;}
	.st2{display:none;}
	.st3{display:inline;fill:#FFFFFF;}
	.st4{fill:#FFFFFF;}
</style>
<g>
	<path class="st0" d="M184.3,86.8v104.3c0,6.9-5.6,12.5-12.6,12.5H75.5c-6.9,0-12.6-5.6-12.6-12.5V57.6c0-6.9,5.6-12.5,12.6-12.5h67
		L184.3,86.8z"/>
</g>
<path class="st1" d="M184.3,86.8H150c-4.2,0-7.5-3.4-7.5-7.5V45.1L184.3,86.8z"/>
<g class="st2">
	<path class="st3" d="M72.5,151.1h16.7c8.1,0,13.6,5,13.6,12.7c0,8.9-6.2,13-13.8,13h-6v13.9H72.5V151.1z M82.9,168.6h4.3
		c3,0,5.1-1.4,5.1-4.7c0-3.4-2.1-4.7-5.1-4.7h-4.3V168.6z"/>
	<path class="st3" d="M107.8,151.1h10.6v14.8h11v-14.8H140v39.6h-10.6v-16.2h-11v16.2h-10.6V151.1z"/>
	<path class="st3" d="M147.4,151.1h16.7c8.1,0,13.6,5,13.6,12.7c0,8.9-6.2,13-13.8,13h-6v13.9h-10.4V151.1z M157.8,168.6h4.3
		c3,0,5.1-1.4,5.1-4.7c0-3.4-2.1-4.7-5.1-4.7h-4.3V168.6z"/>
</g>
<g>
	<path class="st4" d="M113.2,189.9c-3,1.2-6.4,1.8-10.4,1.8c-3.9,0-7.2-0.8-10-2.4c-2.8-1.6-4.9-3.9-6.4-6.9
		c-1.5-3-2.2-6.5-2.2-10.4c0-4.2,0.8-8,2.5-11.2c1.6-3.3,4-5.8,7-7.6c3-1.8,6.5-2.7,10.4-2.7c3.1,0,6.2,0.4,9.1,1.3v11.1
		c-1-0.7-2.2-1.2-3.6-1.6c-1.4-0.4-2.8-0.6-4.2-0.6c-3,0-5.3,0.9-7,2.8c-1.7,1.9-2.6,4.4-2.6,7.6c0,3.2,0.9,5.7,2.6,7.6
		c1.7,1.8,4,2.8,6.8,2.8c2.6,0,5.3-0.7,8-2.2V189.9z"/>
	<path class="st4" d="M143.9,178.9c0,2.7-0.6,5-1.9,6.9s-3.1,3.4-5.4,4.4c-2.3,1-5.1,1.4-8.4,1.4c-3.8,0-7.2-0.7-10.4-2.1v-10.9
		c1.5,1.2,3.2,2.2,5,3c1.8,0.8,3.5,1.1,5.1,1.1c1.2,0,2.1-0.2,2.8-0.7c0.7-0.5,1-1.2,1-2.1c0-0.6-0.2-1.2-0.5-1.7s-0.8-1-1.5-1.4
		s-1.9-1-3.7-1.8c-5.8-2.5-8.7-6.5-8.7-12c0-3.9,1.3-6.9,4-9.3c2.7-2.3,6.2-3.5,10.7-3.5c1.3,0,2.4,0.1,3.5,0.2
		c1.1,0.1,2,0.3,2.9,0.4c0.9,0.2,2.1,0.5,3.6,0.9v10.2c-3-1.8-6-2.8-9-2.8c-1.2,0-2.2,0.3-2.9,0.8c-0.7,0.5-1.1,1.2-1.1,2.1
		c0,0.8,0.3,1.5,0.9,2.1c0.6,0.5,1.8,1.3,3.7,2.1c3.7,1.7,6.4,3.5,8,5.5C143.1,173.9,143.9,176.2,143.9,178.9z"/>
	<path class="st4" d="M173.4,178.9c0,2.7-0.6,5-1.9,6.9s-3.1,3.4-5.4,4.4c-2.3,1-5.1,1.4-8.4,1.4c-3.8,0-7.2-0.7-10.4-2.1v-10.9
		c1.5,1.2,3.2,2.2,5,3c1.8,0.8,3.5,1.1,5.1,1.1c1.2,0,2.1-0.2,2.8-0.7c0.7-0.5,1-1.2,1-2.1c0-0.6-0.2-1.2-0.5-1.7
		c-0.3-0.5-0.8-1-1.5-1.4s-1.9-1-3.7-1.8c-5.8-2.5-8.7-6.5-8.7-12c0-3.9,1.3-6.9,4-9.3c2.7-2.3,6.2-3.5,10.7-3.5
		c1.3,0,2.4,0.1,3.5,0.2c1.1,0.1,2,0.3,2.9,0.4c0.9,0.2,2.1,0.5,3.6,0.9v10.2c-3-1.8-6-2.8-9-2.8c-1.2,0-2.2,0.3-2.9,0.8
		c-0.7,0.5-1.1,1.2-1.1,2.1c0,0.8,0.3,1.5,0.9,2.1c0.6,0.5,1.8,1.3,3.7,2.1c3.7,1.7,6.4,3.5,8,5.5
		C172.7,173.9,173.4,176.2,173.4,178.9z"/>
</g>
</svg>
