<?xml version="1.0" encoding="utf-8"?>
<!-- Generator: Adobe Illustrator 24.1.3, SVG Export Plug-In . SVG Version: 6.00 Build 0)  -->
<svg version="1.1" id="Calque_2" xmlns="http://www.w3.org/2000/svg" xmlns:xlink="http://www.w3.org/1999/xlink" x="0px" y="0px"
	 viewBox="0 0 248.8 248.8" style="enable-background:new 0 0 248.8 248.8;" xml:space="preserve">
<style type="text/css">
	.st0{fill:#EFCE8E;}
	.st1{fill:#C1A778;}
</style>
<path class="st0" d="M43.2,114.3H204c1.7,0,3.2,0.7,4.3,1.9c1.1,1.2,1.7,2.8,1.5,4.5l-14.8,67.7c-0.3,3.1-2.8,5.4-5.9,5.4H59.9
	c-3,0-5.5-2.2-5.9-5.2l-16.7-67.7c-0.2-1.7,0.3-3.3,1.5-4.5C39.9,115,41.5,114.3,43.2,114.3z"/>
<path class="st1" d="M51.6,89.9h142.8V77c0-2.9-1.7-5.2-4.7-5.2h-58v-1.6c0-8.5-5.7-15.1-13.4-15.1H66.2c-7.7,0-14.6,6.5-14.6,15.1
	V89.9z"/>
</svg>
