<?xml version="1.0" encoding="utf-8"?>
<!-- Generator: Adobe Illustrator 24.1.3, SVG Export Plug-In . SVG Version: 6.00 Build 0)  -->
<svg version="1.1" id="Calque_2_1_" xmlns="http://www.w3.org/2000/svg" xmlns:xlink="http://www.w3.org/1999/xlink" x="0px"
	 y="0px" viewBox="0 0 248.8 248.8" style="enable-background:new 0 0 248.8 248.8;" xml:space="preserve">
<style type="text/css">
	.st0{fill-rule:evenodd;clip-rule:evenodd;fill:#FF8B15;}
	.st1{opacity:0.55;fill-rule:evenodd;clip-rule:evenodd;fill:#FFFFFF;enable-background:new    ;}
	.st2{fill:#FFFFFF;}
</style>
<g>
	<path class="st0" d="M184.3,86.8v104.3c0,6.9-5.6,12.5-12.6,12.5H75.5c-6.9,0-12.6-5.6-12.6-12.5V57.6c0-6.9,5.6-12.5,12.6-12.5h67
		L184.3,86.8z"/>
</g>
<path class="st1" d="M184.3,86.8H150c-4.2,0-7.5-3.4-7.5-7.5V45.1L184.3,86.8z"/>
<g>
	<path class="st2" d="M88.5,187.9v-9.6h-8.9v9.6h-7.8v-25.7h7.8v9.5h8.9v-9.5h7.8v25.7H88.5z"/>
	<path class="st2" d="M114.3,168.3v19.7h-7.8v-19.7h-7.2v-6.1h22.3v6.1H114.3z"/>
	<path class="st2" d="M148.3,187.9v-14.1c0-1.3,0-2.8,0.1-4.4l0.1-1.2h-0.2c-0.4,2-0.7,3.4-0.9,4.2l-3.8,15.5h-7.3l-4-15.3
		c-0.1-0.4-0.4-1.8-0.8-4.4h-0.2c0.2,4,0.3,6.5,0.3,7.5v12.1h-6.8v-25.7h11.6l3.5,14c0.1,0.3,0.2,0.9,0.3,1.8c0.1,0.9,0.2,1.6,0.3,2
		h0.1c0.1-1.1,0.3-2.4,0.6-3.9l3.3-13.9h11.4v25.7H148.3z"/>
	<path class="st2" d="M161,187.9v-25.7h7.8v19.7h8.9v6.1H161z"/>
</g>
</svg>
