<?xml version="1.0" encoding="utf-8"?>
<!-- Generator: Adobe Illustrator 24.1.3, SVG Export Plug-In . SVG Version: 6.00 Build 0)  -->
<svg version="1.1" id="Calque_2_1_" xmlns="http://www.w3.org/2000/svg" xmlns:xlink="http://www.w3.org/1999/xlink" x="0px"
	 y="0px" viewBox="0 0 248.8 248.8" style="enable-background:new 0 0 248.8 248.8;" xml:space="preserve">
<style type="text/css">
	.st0{fill-rule:evenodd;clip-rule:evenodd;fill:#EACC4E;}
	.st1{opacity:0.55;fill-rule:evenodd;clip-rule:evenodd;fill:#FFFFFF;enable-background:new    ;}
	.st2{display:none;}
	.st3{display:inline;fill:#FFFFFF;}
	.st4{fill:#FFFFFF;}
</style>
<g>
	<path class="st0" d="M184.3,86.8v104.3c0,6.9-5.6,12.5-12.6,12.5H75.5c-6.9,0-12.6-5.6-12.6-12.5V57.6c0-6.9,5.6-12.5,12.6-12.5h67
		L184.3,86.8z"/>
</g>
<path class="st1" d="M184.3,86.8H150c-4.2,0-7.5-3.4-7.5-7.5V45.1L184.3,86.8z"/>
<g class="st2">
	<path class="st3" d="M72.5,151.1h16.7c8.1,0,13.6,5,13.6,12.7c0,8.9-6.2,13-13.8,13h-6v13.9H72.5V151.1z M82.9,168.6h4.3
		c3,0,5.1-1.4,5.1-4.7c0-3.4-2.1-4.7-5.1-4.7h-4.3V168.6z"/>
	<path class="st3" d="M107.8,151.1h10.6v14.8h11v-14.8H140v39.6h-10.6v-16.2h-11v16.2h-10.6C107.8,190.7,107.8,151.1,107.8,151.1z"
		/>
	<path class="st3" d="M147.4,151.1h16.7c8.1,0,13.6,5,13.6,12.7c0,8.9-6.2,13-13.8,13h-6v13.9h-10.4v-39.6H147.4z M157.8,168.6h4.3
		c3,0,5.1-1.4,5.1-4.7c0-3.4-2.1-4.7-5.1-4.7h-4.3V168.6z"/>
</g>
<g>
	<path class="st4" d="M89.9,178.5c0,8.1-3.9,12.1-11.8,12.1c-0.6,0-1.4-0.1-2.3-0.2c-0.9-0.2-1.8-0.4-2.7-0.7v-7.6
		c0.6,0.4,1.4,0.8,2.2,1.1s1.4,0.4,2,0.4c1.5,0,2.6-0.5,3.3-1.4c0.7-0.9,1.1-2.3,1.1-4.2v-15.2h8.2V178.5z"/>
	<path class="st4" d="M113.9,181.9c0,1.8-0.5,3.4-1.5,4.7c-1,1.3-2.3,2.3-4.1,3c-1.8,0.7-3.9,1-6.3,1c-2.9,0-5.5-0.5-7.8-1.4v-7.5
		c1.1,0.8,2.4,1.5,3.8,2c1.4,0.5,2.7,0.8,3.9,0.8c0.9,0,1.6-0.2,2.1-0.5c0.5-0.3,0.7-0.8,0.7-1.4c0-0.4-0.1-0.8-0.4-1.2
		c-0.2-0.3-0.6-0.7-1.1-0.9c-0.5-0.3-1.4-0.7-2.8-1.2c-4.4-1.7-6.6-4.4-6.6-8.2c0-2.6,1-4.7,3-6.3c2-1.6,4.7-2.4,8.1-2.4
		c1,0,1.8,0,2.6,0.1c0.8,0.1,1.5,0.2,2.2,0.3c0.7,0.1,1.6,0.3,2.7,0.6v6.9c-2.3-1.3-4.6-1.9-6.8-1.9c-0.9,0-1.6,0.2-2.2,0.5
		c-0.6,0.3-0.8,0.8-0.8,1.4c0,0.6,0.2,1,0.7,1.4s1.4,0.9,2.8,1.5c2.8,1.1,4.8,2.4,6,3.7C113.4,178.4,113.9,180.1,113.9,181.9z"/>
	<path class="st4" d="M143.2,176.5c0,2.7-0.6,5.2-1.8,7.4s-2.8,3.8-4.9,5s-4.5,1.8-7.1,1.8c-2.6,0-4.9-0.6-7-1.7
		c-2.1-1.2-3.7-2.8-4.9-4.9c-1.2-2.1-1.8-4.5-1.8-7.1c0-2.8,0.6-5.3,1.8-7.5s2.8-3.9,5-5.1s4.6-1.8,7.3-1.8c2.6,0,4.9,0.6,7,1.7
		s3.7,2.8,4.8,5S143.2,173.7,143.2,176.5z M134.5,176.7c0-2.2-0.4-4-1.3-5.3c-0.9-1.3-2-1.9-3.5-1.9c-1.6,0-2.9,0.6-3.8,1.9
		c-0.9,1.2-1.4,3-1.4,5.3c0,2.2,0.5,4,1.4,5.2c0.9,1.2,2.1,1.9,3.7,1.9c1,0,1.8-0.3,2.6-0.8c0.8-0.6,1.3-1.4,1.8-2.4
		S134.5,178.1,134.5,176.7z"/>
	<path class="st4" d="M166.1,190.2l-9.6-13.2c-0.8-1-1.4-2-1.9-2.8h-0.1c0.1,1.3,0.1,2.9,0.1,4.5v11.5h-7.6v-27.3h7.8l9.2,12.5
		c0.1,0.2,0.3,0.4,0.4,0.6c0.2,0.2,0.3,0.5,0.5,0.7c0.2,0.2,0.3,0.5,0.5,0.7c0.1,0.2,0.3,0.4,0.3,0.6h0.1c-0.1-0.6-0.1-1.5-0.1-2.9
		v-12.2h7.6v27.3H166.1z"/>
</g>
</svg>
