<?xml version="1.0" encoding="utf-8"?>
<!-- Generator: Adobe Illustrator 24.1.3, SVG Export Plug-In . SVG Version: 6.00 Build 0)  -->
<svg version="1.1" id="Calque_2" xmlns="http://www.w3.org/2000/svg" xmlns:xlink="http://www.w3.org/1999/xlink" x="0px" y="0px"
	 viewBox="0 0 248.8 248.8" style="enable-background:new 0 0 248.8 248.8;" xml:space="preserve">
<style type="text/css">
	.st0{fill-rule:evenodd;clip-rule:evenodd;fill:#CC6699;}
	.st1{opacity:0.55;fill-rule:evenodd;clip-rule:evenodd;fill:#FFFFFF;}
	.st2{display:none;}
	.st3{display:inline;fill:#FFFFFF;}
	.st4{fill:#FFFFFF;}
</style>
<g>
	<path class="st0" d="M184.3,86.8v104.3c0,6.9-5.6,12.5-12.6,12.5H75.5c-6.9,0-12.6-5.6-12.6-12.5V57.6c0-6.9,5.6-12.5,12.6-12.5h67
		L184.3,86.8z"/>
</g>
<path class="st1" d="M184.3,86.8H150c-4.2,0-7.5-3.4-7.5-7.5V45.1L184.3,86.8z"/>
<g class="st2">
	<path class="st3" d="M72.5,151.1h16.7c8.1,0,13.6,5,13.6,12.7c0,8.9-6.2,13-13.8,13h-6v13.9H72.5V151.1z M82.9,168.6h4.3
		c3,0,5.1-1.4,5.1-4.7c0-3.4-2.1-4.7-5.1-4.7h-4.3V168.6z"/>
	<path class="st3" d="M107.8,151.1h10.6v14.8h11v-14.8H140v39.6h-10.6v-16.2h-11v16.2h-10.6V151.1z"/>
	<path class="st3" d="M147.4,151.1h16.7c8.1,0,13.6,5,13.6,12.7c0,8.9-6.2,13-13.8,13h-6v13.9h-10.4V151.1z M157.8,168.6h4.3
		c3,0,5.1-1.4,5.1-4.7c0-3.4-2.1-4.7-5.1-4.7h-4.3V168.6z"/>
</g>
<g>
	<path class="st4" d="M96.4,180.9c0,2.2-0.5,4.2-1.6,5.8c-1.1,1.7-2.6,2.9-4.6,3.7c-2,0.8-4.3,1.2-7.1,1.2c-3.2,0-6.1-0.6-8.7-1.8
		v-9.2c1.3,1,2.7,1.9,4.2,2.5c1.5,0.6,3,0.9,4.3,0.9c1,0,1.8-0.2,2.3-0.6s0.8-1,0.8-1.7c0-0.5-0.1-1-0.4-1.4
		c-0.3-0.4-0.7-0.8-1.3-1.2c-0.6-0.4-1.6-0.9-3.1-1.5c-4.9-2.1-7.3-5.4-7.3-10.1c0-3.3,1.1-5.8,3.4-7.8c2.2-1.9,5.2-2.9,9-2.9
		c1.1,0,2,0,2.9,0.1c0.9,0.1,1.7,0.2,2.4,0.4c0.7,0.1,1.8,0.4,3.1,0.8v8.6c-2.6-1.5-5.1-2.3-7.6-2.3c-1,0-1.8,0.2-2.5,0.6
		c-0.6,0.4-0.9,1-0.9,1.7c0,0.7,0.3,1.3,0.8,1.7s1.6,1.1,3.2,1.8c3.2,1.4,5.4,2.9,6.7,4.6C95.8,176.6,96.4,178.6,96.4,180.9z"/>
	<path class="st4" d="M122.8,190.1c-2.5,1-5.4,1.5-8.7,1.5c-3.2,0-6-0.7-8.4-2.1c-2.4-1.4-4.1-3.3-5.4-5.8c-1.2-2.5-1.9-5.4-1.9-8.7
		c0-3.5,0.7-6.7,2.1-9.5s3.3-4.9,5.9-6.4c2.5-1.5,5.5-2.3,8.7-2.3c2.6,0,5.2,0.4,7.6,1.1v9.4c-0.8-0.6-1.9-1-3-1.3
		c-1.2-0.3-2.4-0.5-3.6-0.5c-2.5,0-4.5,0.8-5.9,2.4s-2.2,3.7-2.2,6.4c0,2.7,0.7,4.8,2.2,6.4s3.4,2.3,5.8,2.3c2.2,0,4.5-0.6,6.7-1.9
		V190.1z"/>
	<path class="st4" d="M148.7,180.9c0,2.2-0.5,4.2-1.6,5.8s-2.6,2.9-4.6,3.7c-2,0.8-4.3,1.2-7,1.2c-3.2,0-6.1-0.6-8.8-1.8v-9.2
		c1.3,1,2.7,1.9,4.2,2.5c1.5,0.6,3,0.9,4.3,0.9c1,0,1.8-0.2,2.3-0.6c0.6-0.4,0.8-1,0.8-1.7c0-0.5-0.1-1-0.4-1.4
		c-0.3-0.4-0.7-0.8-1.3-1.2s-1.6-0.9-3.1-1.5c-4.9-2.1-7.3-5.4-7.3-10.1c0-3.3,1.1-5.8,3.4-7.8s5.2-2.9,9-2.9c1.1,0,2,0,2.9,0.1
		c0.9,0.1,1.7,0.2,2.4,0.4c0.7,0.1,1.8,0.4,3.1,0.8v8.6c-2.6-1.5-5.1-2.3-7.6-2.3c-1,0-1.8,0.2-2.5,0.6c-0.6,0.4-0.9,1-0.9,1.7
		c0,0.7,0.3,1.3,0.8,1.7c0.5,0.5,1.6,1.1,3.2,1.8c3.2,1.4,5.4,2.9,6.7,4.6S148.7,178.6,148.7,180.9z"/>
	<path class="st4" d="M173.6,180.9c0,2.2-0.5,4.2-1.6,5.8c-1.1,1.7-2.6,2.9-4.6,3.7s-4.3,1.2-7.1,1.2c-3.2,0-6.1-0.6-8.7-1.8v-9.2
		c1.3,1,2.7,1.9,4.2,2.5s3,0.9,4.3,0.9c1,0,1.8-0.2,2.3-0.6c0.6-0.4,0.8-1,0.8-1.7c0-0.5-0.1-1-0.4-1.4s-0.7-0.8-1.3-1.2
		c-0.6-0.4-1.6-0.9-3.1-1.5c-4.9-2.1-7.3-5.4-7.3-10.1c0-3.3,1.1-5.8,3.4-7.8c2.2-1.9,5.2-2.9,9-2.9c1.1,0,2,0,2.9,0.1
		s1.7,0.2,2.4,0.4s1.8,0.4,3.1,0.8v8.6c-2.6-1.5-5.1-2.3-7.6-2.3c-1,0-1.8,0.2-2.5,0.6s-0.9,1-0.9,1.7c0,0.7,0.3,1.3,0.8,1.7
		c0.5,0.5,1.6,1.1,3.2,1.8c3.2,1.4,5.4,2.9,6.7,4.6C172.9,176.6,173.6,178.6,173.6,180.9z"/>
</g>
</svg>
