<?xml version="1.0" encoding="utf-8"?>
<!-- Generator: Adobe Illustrator 24.1.3, SVG Export Plug-In . SVG Version: 6.00 Build 0)  -->
<svg version="1.1" id="Calque_2_1_" xmlns="http://www.w3.org/2000/svg" xmlns:xlink="http://www.w3.org/1999/xlink" x="0px"
	 y="0px" viewBox="0 0 248.8 248.8" style="enable-background:new 0 0 248.8 248.8;" xml:space="preserve">
<style type="text/css">
	.st0{fill-rule:evenodd;clip-rule:evenodd;fill:#FF8B15;}
	.st1{opacity:0.55;fill-rule:evenodd;clip-rule:evenodd;fill:#FFFFFF;enable-background:new    ;}
	.st2{fill:#FFFFFF;}
</style>
<g>
	<path class="st0" d="M184.3,86.8v104.3c0,6.9-5.6,12.5-12.6,12.5H75.5c-6.9,0-12.6-5.6-12.6-12.5V57.6c0-6.9,5.6-12.5,12.6-12.5h67
		L184.3,86.8z"/>
</g>
<path class="st1" d="M184.3,86.8H150c-4.2,0-7.5-3.4-7.5-7.5V45.1L184.3,86.8z"/>
<g>
	<path class="st2" d="M96.1,156.3v29.1H84.6v-29.1H74v-9h32.9v9H96.1z"/>
	<path class="st2" d="M142.6,159.9c0,2.6-0.7,4.9-2,6.9c-1.3,2-3.2,3.6-5.6,4.7c-2.4,1.1-5.3,1.7-8.5,1.7h-3.5v12.2h-11.5v-38.1
		h15.6c5.4,0,9.3,1,11.8,3.1C141.4,152.5,142.6,155.6,142.6,159.9z M130.5,160.3c0-1.6-0.5-2.7-1.4-3.5c-0.9-0.8-2.2-1.2-4-1.2h-2.2
		v9.4h2.6C128.8,165,130.5,163.4,130.5,160.3z"/>
	<path class="st2" d="M147.1,185.4v-38.1h11.5v29.1h13.1v9H147.1z"/>
</g>
</svg>
