<?xml version="1.0" encoding="utf-8"?>
<!-- Generator: Adobe Illustrator 24.1.3, SVG Export Plug-In . SVG Version: 6.00 Build 0)  -->
<svg version="1.1" id="Calque_2_1_" xmlns="http://www.w3.org/2000/svg" xmlns:xlink="http://www.w3.org/1999/xlink" x="0px"
	 y="0px" viewBox="0 0 248.8 248.8" style="enable-background:new 0 0 248.8 248.8;" xml:space="preserve">
<style type="text/css">
	.st0{fill-rule:evenodd;clip-rule:evenodd;fill:#878787;}
	.st1{opacity:0.55;fill-rule:evenodd;clip-rule:evenodd;fill:#FFFFFF;enable-background:new    ;}
	.st2{display:none;}
	.st3{display:inline;fill:#FFFFFF;}
	.st4{fill:#FFFFFF;}
</style>
<g>
	<path class="st0" d="M184.3,86.8v104.3c0,6.9-5.6,12.5-12.6,12.5H75.5c-6.9,0-12.6-5.6-12.6-12.5V57.6c0-6.9,5.6-12.5,12.6-12.5h67
		L184.3,86.8z"/>
</g>
<path class="st1" d="M184.3,86.8H150c-4.2,0-7.5-3.4-7.5-7.5V45.1L184.3,86.8z"/>
<g class="st2">
	<path class="st3" d="M72.5,151.1h16.7c8.1,0,13.6,5,13.6,12.7c0,8.9-6.2,13-13.8,13h-6v13.9H72.5V151.1z M82.9,168.6h4.3
		c3,0,5.1-1.4,5.1-4.7c0-3.4-2.1-4.7-5.1-4.7h-4.3V168.6z"/>
	<path class="st3" d="M107.8,151.1h10.6v14.8h11v-14.8H140v39.6h-10.6v-16.2h-11v16.2h-10.6C107.8,190.7,107.8,151.1,107.8,151.1z"
		/>
	<path class="st3" d="M147.4,151.1h16.7c8.1,0,13.6,5,13.6,12.7c0,8.9-6.2,13-13.8,13h-6v13.9h-10.4v-39.6H147.4z M157.8,168.6h4.3
		c3,0,5.1-1.4,5.1-4.7c0-3.4-2.1-4.7-5.1-4.7h-4.3V168.6z"/>
</g>
<g>
	<path class="st4" d="M97.3,162.3v25.2h-10v-25.2h-9.2v-7.8h28.5v7.8H97.3z"/>
	<path class="st4" d="M128.7,187.5l-4.1-9c-0.3-0.6-0.4-1.1-0.5-1.7c-0.1-0.5-0.1-1-0.2-1.3h-0.1c-0.1,0.4-0.2,0.9-0.3,1.4
		c-0.1,0.6-0.3,1.2-0.5,1.7l-3.8,8.9h-11.8l9.9-16.4l-9-16.5h12l3.2,8.7c0.3,0.8,0.6,1.9,0.8,3.2h0.1c0.2-1.5,0.5-2.6,0.9-3.3
		l3.7-8.7h11.1l-9.3,16.4l9.7,16.6H128.7z"/>
	<path class="st4" d="M160.3,162.3v25.2h-10v-25.2h-9.2v-7.8h28.5v7.8H160.3z"/>
</g>
</svg>
